<mxfile host="app.diagrams.net" modified="2021-06-07T22:26:50.550Z" agent="5.0 (Windows NT 10.0; Win64; x64) AppleWebKit/537.36 (KHTML, like Gecko) Chrome/90.0.4430.212 Safari/537.36" etag="ixIikg_RMCHyhAcZ6T-G" version="14.7.6" type="github">
  <diagram id="r_O1RaxWrrtH8uqQ30q3" name="Page-1">
    <mxGraphModel dx="1034" dy="585" grid="1" gridSize="10" guides="1" tooltips="1" connect="1" arrows="1" fold="1" page="1" pageScale="1" pageWidth="2339" pageHeight="3300" math="0" shadow="0">
      <root>
        <mxCell id="0" />
        <mxCell id="1" parent="0" />
        <mxCell id="qTKSmP5WqX47_2fig1QB-1" style="edgeStyle=orthogonalEdgeStyle;rounded=0;orthogonalLoop=1;jettySize=auto;html=1;exitX=0.5;exitY=1;exitDx=0;exitDy=0;entryX=0.932;entryY=-0.08;entryDx=0;entryDy=0;entryPerimeter=0;endArrow=none;endFill=0;" edge="1" parent="1" target="ZQmBFMAHCiKAutRS2xqe-6">
          <mxGeometry relative="1" as="geometry">
            <mxPoint x="570" y="140" as="sourcePoint" />
          </mxGeometry>
        </mxCell>
        <mxCell id="ZQmBFMAHCiKAutRS2xqe-23" style="edgeStyle=orthogonalEdgeStyle;rounded=0;orthogonalLoop=1;jettySize=auto;html=1;exitX=0.5;exitY=1;exitDx=0;exitDy=0;entryX=0.5;entryY=0;entryDx=0;entryDy=0;endArrow=none;endFill=0;" parent="1" source="ZQmBFMAHCiKAutRS2xqe-4" target="ZQmBFMAHCiKAutRS2xqe-6" edge="1">
          <mxGeometry relative="1" as="geometry" />
        </mxCell>
        <mxCell id="ZQmBFMAHCiKAutRS2xqe-4" value="starting year" style="ellipse;whiteSpace=wrap;html=1;" parent="1" vertex="1">
          <mxGeometry x="160" y="151.25" width="120" height="50" as="geometry" />
        </mxCell>
        <mxCell id="ZQmBFMAHCiKAutRS2xqe-56" style="edgeStyle=orthogonalEdgeStyle;rounded=0;orthogonalLoop=1;jettySize=auto;html=1;entryX=0.75;entryY=0;entryDx=0;entryDy=0;endArrow=none;endFill=0;" parent="1" source="ZQmBFMAHCiKAutRS2xqe-5" target="ZQmBFMAHCiKAutRS2xqe-6" edge="1">
          <mxGeometry relative="1" as="geometry" />
        </mxCell>
        <mxCell id="ZQmBFMAHCiKAutRS2xqe-5" value="genre" style="ellipse;whiteSpace=wrap;html=1;" parent="1" vertex="1">
          <mxGeometry x="160" y="70" width="120" height="50" as="geometry" />
        </mxCell>
        <mxCell id="qTKSmP5WqX47_2fig1QB-36" style="edgeStyle=orthogonalEdgeStyle;rounded=0;orthogonalLoop=1;jettySize=auto;html=1;entryX=0;entryY=0.5;entryDx=0;entryDy=0;startArrow=none;startFill=0;endArrow=none;endFill=0;" edge="1" parent="1" source="ZQmBFMAHCiKAutRS2xqe-6" target="ZQmBFMAHCiKAutRS2xqe-8">
          <mxGeometry relative="1" as="geometry" />
        </mxCell>
        <mxCell id="ZQmBFMAHCiKAutRS2xqe-6" value="aritist" style="whiteSpace=wrap;html=1;align=center;" parent="1" vertex="1">
          <mxGeometry x="360" y="270" width="100" height="40" as="geometry" />
        </mxCell>
        <mxCell id="ZQmBFMAHCiKAutRS2xqe-8" value="member_count" style="ellipse;whiteSpace=wrap;html=1;align=center;dashed=1;" parent="1" vertex="1">
          <mxGeometry x="520" y="270" width="90" height="40" as="geometry" />
        </mxCell>
        <mxCell id="ZQmBFMAHCiKAutRS2xqe-38" style="edgeStyle=orthogonalEdgeStyle;rounded=0;orthogonalLoop=1;jettySize=auto;html=1;exitX=0;exitY=0.5;exitDx=0;exitDy=0;endArrow=none;endFill=0;" parent="1" source="ZQmBFMAHCiKAutRS2xqe-17" edge="1">
          <mxGeometry relative="1" as="geometry">
            <mxPoint x="370" y="620" as="targetPoint" />
          </mxGeometry>
        </mxCell>
        <mxCell id="ZQmBFMAHCiKAutRS2xqe-17" value="Musician" style="whiteSpace=wrap;html=1;align=center;" parent="1" vertex="1">
          <mxGeometry x="360" y="590" width="100" height="40" as="geometry" />
        </mxCell>
        <mxCell id="ZQmBFMAHCiKAutRS2xqe-28" style="edgeStyle=orthogonalEdgeStyle;rounded=0;orthogonalLoop=1;jettySize=auto;html=1;exitX=1;exitY=0.5;exitDx=0;exitDy=0;endArrow=none;endFill=0;entryX=0.5;entryY=0;entryDx=0;entryDy=0;" parent="1" target="ZQmBFMAHCiKAutRS2xqe-17" edge="1">
          <mxGeometry relative="1" as="geometry">
            <mxPoint x="390" y="580" as="targetPoint" />
            <Array as="points">
              <mxPoint x="403" y="480" />
              <mxPoint x="403" y="590" />
            </Array>
            <mxPoint x="290" y="480" as="sourcePoint" />
          </mxGeometry>
        </mxCell>
        <mxCell id="ZQmBFMAHCiKAutRS2xqe-33" style="edgeStyle=orthogonalEdgeStyle;rounded=0;orthogonalLoop=1;jettySize=auto;html=1;exitX=1;exitY=0.5;exitDx=0;exitDy=0;endArrow=none;endFill=0;entryX=0;entryY=0.5;entryDx=0;entryDy=0;" parent="1" source="ZQmBFMAHCiKAutRS2xqe-29" target="ZQmBFMAHCiKAutRS2xqe-17" edge="1">
          <mxGeometry relative="1" as="geometry">
            <mxPoint x="350" y="610" as="targetPoint" />
            <Array as="points">
              <mxPoint x="325" y="540" />
              <mxPoint x="325" y="600" />
              <mxPoint x="360" y="600" />
            </Array>
          </mxGeometry>
        </mxCell>
        <mxCell id="ZQmBFMAHCiKAutRS2xqe-29" value="first_name" style="ellipse;whiteSpace=wrap;html=1;align=center;" parent="1" vertex="1">
          <mxGeometry x="190" y="520" width="100" height="40" as="geometry" />
        </mxCell>
        <mxCell id="ZQmBFMAHCiKAutRS2xqe-39" style="edgeStyle=orthogonalEdgeStyle;rounded=0;orthogonalLoop=1;jettySize=auto;html=1;endArrow=none;endFill=0;entryX=0;entryY=0.75;entryDx=0;entryDy=0;" parent="1" source="ZQmBFMAHCiKAutRS2xqe-30" target="ZQmBFMAHCiKAutRS2xqe-17" edge="1">
          <mxGeometry relative="1" as="geometry">
            <mxPoint x="320" y="640" as="targetPoint" />
          </mxGeometry>
        </mxCell>
        <mxCell id="ZQmBFMAHCiKAutRS2xqe-30" value="last_name" style="ellipse;whiteSpace=wrap;html=1;align=center;" parent="1" vertex="1">
          <mxGeometry x="190" y="585" width="100" height="40" as="geometry" />
        </mxCell>
        <mxCell id="ZQmBFMAHCiKAutRS2xqe-40" style="edgeStyle=orthogonalEdgeStyle;rounded=0;orthogonalLoop=1;jettySize=auto;html=1;entryX=0.4;entryY=1;entryDx=0;entryDy=0;entryPerimeter=0;endArrow=none;endFill=0;" parent="1" source="ZQmBFMAHCiKAutRS2xqe-31" target="ZQmBFMAHCiKAutRS2xqe-17" edge="1">
          <mxGeometry relative="1" as="geometry" />
        </mxCell>
        <mxCell id="ZQmBFMAHCiKAutRS2xqe-31" value="instument" style="ellipse;whiteSpace=wrap;html=1;align=center;" parent="1" vertex="1">
          <mxGeometry x="190" y="650" width="100" height="40" as="geometry" />
        </mxCell>
        <mxCell id="ZQmBFMAHCiKAutRS2xqe-41" style="rounded=0;orthogonalLoop=1;jettySize=auto;html=1;exitX=1;exitY=0.5;exitDx=0;exitDy=0;endArrow=none;endFill=0;entryX=0.644;entryY=1.02;entryDx=0;entryDy=0;entryPerimeter=0;edgeStyle=orthogonalEdgeStyle;" parent="1" source="ZQmBFMAHCiKAutRS2xqe-32" target="ZQmBFMAHCiKAutRS2xqe-17" edge="1">
          <mxGeometry relative="1" as="geometry">
            <mxPoint x="450" y="670" as="targetPoint" />
          </mxGeometry>
        </mxCell>
        <mxCell id="ZQmBFMAHCiKAutRS2xqe-32" value="email_address" style="ellipse;whiteSpace=wrap;html=1;align=center;" parent="1" vertex="1">
          <mxGeometry x="190" y="710" width="100" height="40" as="geometry" />
        </mxCell>
        <mxCell id="qTKSmP5WqX47_2fig1QB-7" value="SIN" style="ellipse;whiteSpace=wrap;html=1;align=center;fontStyle=4;" vertex="1" parent="1">
          <mxGeometry x="190" y="460" width="100" height="40" as="geometry" />
        </mxCell>
        <mxCell id="qTKSmP5WqX47_2fig1QB-9" value="name" style="ellipse;whiteSpace=wrap;html=1;align=center;fontStyle=4;" vertex="1" parent="1">
          <mxGeometry x="570" y="120" width="100" height="40" as="geometry" />
        </mxCell>
        <mxCell id="qTKSmP5WqX47_2fig1QB-10" style="edgeStyle=orthogonalEdgeStyle;rounded=0;orthogonalLoop=1;jettySize=auto;html=1;exitX=0.5;exitY=1;exitDx=0;exitDy=0;endArrow=none;endFill=0;" edge="1" parent="1">
          <mxGeometry relative="1" as="geometry">
            <mxPoint x="550" y="420" as="sourcePoint" />
            <mxPoint x="550" y="420" as="targetPoint" />
          </mxGeometry>
        </mxCell>
        <mxCell id="qTKSmP5WqX47_2fig1QB-20" value="individual" style="whiteSpace=wrap;html=1;align=center;" vertex="1" parent="1">
          <mxGeometry x="200" y="365" width="90" height="25" as="geometry" />
        </mxCell>
        <mxCell id="qTKSmP5WqX47_2fig1QB-21" value="band" style="whiteSpace=wrap;html=1;align=center;" vertex="1" parent="1">
          <mxGeometry x="530" y="365" width="100" height="27.5" as="geometry" />
        </mxCell>
      </root>
    </mxGraphModel>
  </diagram>
</mxfile>
